<?xml version="1.0" encoding="UTF-8" standalone="no"?>
<!-- Created with Inkscape (http://www.inkscape.org/) -->

<svg
   width="30.689604mm"
   height="33.523857mm"
   viewBox="0 0 30.689604 33.523857"
   version="1.1"
   id="svg1"
   xml:space="preserve"
   inkscape:export-filename="FABLogo.png"
   inkscape:export-xdpi="96"
   inkscape:export-ydpi="96"
   inkscape:version="1.4.3 (0d15f75, 2025-12-25)"
   sodipodi:docname="Logo.svg"
   xmlns:inkscape="http://www.inkscape.org/namespaces/inkscape"
   xmlns:sodipodi="http://sodipodi.sourceforge.net/DTD/sodipodi-0.dtd"
   xmlns="http://www.w3.org/2000/svg"
   xmlns:svg="http://www.w3.org/2000/svg"><sodipodi:namedview
     id="namedview1"
     pagecolor="#505050"
     bordercolor="#eeeeee"
     borderopacity="1"
     inkscape:showpageshadow="0"
     inkscape:pageopacity="0"
     inkscape:pagecheckerboard="0"
     inkscape:deskcolor="#505050"
     inkscape:document-units="mm"
     inkscape:zoom="0.9402131"
     inkscape:cx="107.95425"
     inkscape:cy="-74.451207"
     inkscape:window-width="1920"
     inkscape:window-height="991"
     inkscape:window-x="2391"
     inkscape:window-y="456"
     inkscape:window-maximized="1"
     inkscape:current-layer="layer1" /><defs
     id="defs1" /><g
     inkscape:label="Layer 1"
     inkscape:groupmode="layer"
     id="layer1"
     transform="translate(-81.068726,-189.10804)"><path
       style="fill:#ec2024;fill-opacity:1"
       d="m 92.82733,203.79328 c -7.88019,-4.52545 -9.113759,-5.32214 -9.113759,-5.88608 0,-0.63426 1.283647,-1.97577 1.890551,-1.97577 0.223512,0 1.936548,0.89297 3.806746,1.98437 1.870198,1.09141 3.608935,1.98438 3.86386,1.98438 0.657691,0 1.766721,-1.06552 1.957526,-1.88073 0.136975,-0.58522 0.02082,-0.77312 -0.764313,-1.23636 -1.237889,-0.73037 -1.813732,-1.67601 -1.962332,-3.22253 -0.320378,-3.33423 3.43008,-5.67937 6.018424,-3.76328 2.482317,1.83761 2.452377,5.28644 -0.05994,6.90608 -0.576769,0.37183 -0.992187,0.85116 -0.992187,1.14483 0,0.65053 1.396964,2.05199 2.045402,2.05199 0.274234,0 2.028772,-0.89297 3.898972,-1.98438 1.87019,-1.0914 3.60893,-1.98437 3.86385,-1.98437 0.55773,0 1.83344,1.44647 1.83344,2.07886 0,0.4404 -1.8046,1.58547 -9.113758,5.78299 -1.592828,0.91473 -3.206636,1.66315 -3.58624,1.66315 -0.379603,0 -1.993411,-0.74842 -3.58624,-1.66315 z"
       id="path12" /><path
       style="fill:#2f7f46;fill-opacity:1"
       d="m 97.383709,222.47795 c -0.09701,-0.097 -0.176389,-3.47291 -0.176389,-7.50199 0,-7.30904 0.0014,-7.3271 0.617753,-7.99216 0.339763,-0.36661 2.929377,-2.03435 5.754687,-3.70609 6.62545,-3.92028 6.27907,-3.74715 6.73682,-3.36726 0.53697,0.44565 0.94303,2.08629 0.65128,2.63144 -0.13232,0.24724 -1.67671,1.30826 -3.43198,2.35782 -1.75526,1.04956 -3.37903,2.19467 -3.60836,2.54467 -0.5143,0.78492 -0.28689,2.08841 0.45501,2.60805 0.44918,0.31462 0.6503,0.29459 1.5004,-0.14944 1.23633,-0.64577 3.10537,-0.52686 4.22255,0.26864 1.61233,1.14808 2.16032,3.8437 1.12619,5.53982 -2.07222,3.3987 -7.40527,1.97525 -7.40878,-1.97749 -7.3e-4,-0.83109 -0.13135,-1.18494 -0.51276,-1.38906 -0.82765,-0.44294 -1.58467,-0.31817 -2.27838,0.37554 -0.6325,0.6325 -0.64954,0.75496 -0.65348,4.69635 -0.002,2.22581 -0.094,4.18831 -0.20382,4.3611 -0.394678,0.6207 -2.37367,1.11713 -2.790741,0.70006 z"
       id="path2" /><path
       style="fill:#0f3d65;fill-opacity:1"
       d="m 93.238571,222.31912 c -0.654552,-0.33694 -0.66284,-0.38462 -0.79375,-4.5667 -0.08508,-2.71797 -0.253047,-4.43754 -0.470658,-4.81839 -0.419794,-0.7347 -1.477751,-1.02462 -2.326978,-0.63769 -0.514226,0.2343 -0.642029,0.49102 -0.642359,1.29035 -9.28e-4,2.25268 -1.746101,4.04136 -3.94132,4.03958 -2.358812,-0.002 -3.992994,-1.69022 -3.994779,-4.12707 -0.0023,-3.1276 3.088555,-5.00479 5.889378,-3.57685 1.12035,0.57118 1.580916,0.37856 2.037954,-0.85232 0.490718,-1.32159 -0.08756,-1.95772 -3.755676,-4.13136 -1.852388,-1.09768 -3.436321,-2.19889 -3.51985,-2.44712 -0.197292,-0.58632 0.41001,-2.6097 0.83187,-2.77158 0.417985,-0.1604 0.544941,-0.0926 6.935682,3.70346 3.824333,2.27163 5.487778,3.40727 5.758948,3.93166 0.310138,0.59974 0.368168,2.08403 0.310903,7.95217 l -0.07041,7.21479 -0.79375,0.0688 c -0.436563,0.0378 -1.091406,-0.0844 -1.455208,-0.27172 z"
       id="path1" /></g></svg>
